<svg xmlns="http://www.w3.org/2000/svg" xmlns:xlink="http://www.w3.org/1999/xlink" width="120.957" height="28.556" viewBox="0 0 120.957 28.556">
  <defs>
    <clipPath id="clip-path">
      <rect id="Rectangle_2" data-name="Rectangle 2" width="120.957" height="28.556" fill="none"/>
    </clipPath>
  </defs>
  <g id="Group_572" data-name="Group 572" transform="translate(0 0)">
    <g id="Group_1" data-name="Group 1" transform="translate(0 0)" clip-path="url(#clip-path)">
      <path id="Path_1" data-name="Path 1" d="M125.519,10.459a.233.233,0,0,0-.15-.273,11.352,11.352,0,0,0-2.33-.289c-3.063-.061-4.33,1.955-4.33,4.266V26.587a.2.2,0,0,0,.2.2h2.269a.2.2,0,0,0,.2-.2V14.474a2.453,2.453,0,0,1,.612-1.841,2.415,2.415,0,0,1,1.881-.495l1.106.1a.194.194,0,0,0,.191-.163Z" transform="translate(-58.457 -4.873)" fill="#2e2e2d"/>
      <path id="Path_2" data-name="Path 2" d="M143.734,9.76c-5.568,0-7.542,2.259-7.542,8.631,0,6.321,1.973,8.561,7.542,8.561s7.541-2.24,7.541-8.561c0-6.372-1.973-8.631-7.541-8.631m0,15.088c-3.648,0-4.82-1.569-4.82-6.457,0-4.914,1.171-6.491,4.82-6.491s4.82,1.577,4.82,6.491c0,4.888-1.171,6.457-4.82,6.457" transform="translate(-67.066 -4.806)" fill="#2e2e2d"/>
      <path id="Path_3" data-name="Path 3" d="M36.626,10.8V26.941a.193.193,0,0,0,.193.194h2.242a.194.194,0,0,0,.193-.194V10.8a.193.193,0,0,0-.193-.193H36.819a.193.193,0,0,0-.193.193" transform="translate(-18.036 -5.224)" fill="#2e2e2d"/>
      <path id="Path_4" data-name="Path 4" d="M222.774,47.785a1.5,1.5,0,0,1-1.064-.44l-4.664-4.665-4.663,4.665a1.5,1.5,0,1,1-2.127-2.127l5.727-5.729a1.5,1.5,0,0,1,2.128,0l5.727,5.729a1.5,1.5,0,0,1-1.064,2.567" transform="translate(-103.321 -19.229)" fill="#db0216"/>
      <path id="Path_5" data-name="Path 5" d="M95.631,24.563a.182.182,0,0,0-.2-.156,19.069,19.069,0,0,1-4.285.382c-3.638,0-5.262-1.024-5.262-5v-.059h8.1c2.468,0,3.72-1.744,3.72-4.686,0-3.579-2.565-5.234-7.3-5.234-5.821,0-7.347,2.245-7.347,8.353,0,6.829,1.43,8.81,7.653,8.81a22.54,22.54,0,0,0,5.109-.581.2.2,0,0,0,.154-.229Zm-9.751-7.817c.106-3.492,1.083-4.786,4.685-4.786,2.92,0,4.431.854,4.468,3.075a3.649,3.649,0,0,1-.479,2.032,1.723,1.723,0,0,1-1.459.655H85.881Z" transform="translate(-40.897 -4.829)" fill="#2e2e2d"/>
      <path id="Path_6" data-name="Path 6" d="M2.388,12.1a.186.186,0,0,0,.2.155,30.622,30.622,0,0,1,4.154-.3c3.639,0,4.712,1.038,4.712,5.018v.042l-6.517.011C1.784,17.032,0,18.782,0,21.724c0,3.579,2.2,5.234,6.941,5.234,7.946,0,7.347-1.295,7.347-8.353,0-6.828-1.166-8.833-7.39-8.833a22.151,22.151,0,0,0-4.693.523.2.2,0,0,0-.154.229Zm9.07,7.913c0,4.985.522,4.823-4.722,4.823-2.92,0-4.035-.891-4.072-3.111a2.911,2.911,0,0,1,.572-1.915,2.341,2.341,0,0,1,2.049-.793h6.173Z" transform="translate(0 -4.812)" fill="#2e2e2d"/>
      <path id="Rectangle_1" data-name="Rectangle 1" d="M1,0h.7a1,1,0,0,1,1,1v.383a1,1,0,0,1-1,1H1a1,1,0,0,1-1-1V1A1,1,0,0,1,1,0Z" transform="translate(18.547 0.002)" fill="#2e2e2d"/>
      <path id="Path_7" data-name="Path 7" d="M71.391,22.146a9.344,9.344,0,0,0,.993-.044.2.2,0,0,0,.178-.193l.2-1.583a.2.2,0,0,0-.185-.191,2.994,2.994,0,0,1-1.8-.682,2.743,2.743,0,0,1-.585-2.132V.19c0-.1-.051-.205-.188-.188H67.723c-.136.022-.188.084-.188.188V17.761c0,2.694,1.406,4.385,3.856,4.385" transform="translate(-33.257 0)" fill="#2e2e2d"/>
      <path id="Path_8" data-name="Path 8" d="M182.081,10.609h-4.554c-3.036,0-4.45,1.3-4.45,4.1V26.94a.193.193,0,0,0,.193.194h2.275a.194.194,0,0,0,.193-.194V15.3a2.452,2.452,0,0,1,.611-1.841,2.611,2.611,0,0,1,1.943-.679h3.019a2.611,2.611,0,0,1,1.943.679,2.458,2.458,0,0,1,.612,1.85V26.94a.193.193,0,0,0,.193.194h2.275a.193.193,0,0,0,.193-.194V14.709c0-2.8-1.413-4.1-4.448-4.1" transform="translate(-85.23 -5.224)" fill="#2e2e2d"/>
      <path id="Path_9" data-name="Path 9" d="M55.255,22.146a9.349,9.349,0,0,0,.993-.044.2.2,0,0,0,.179-.193l.2-1.583a.2.2,0,0,0-.185-.191,2.992,2.992,0,0,1-1.8-.682,2.743,2.743,0,0,1-.585-2.132V.19c0-.1-.051-.205-.188-.188H51.587C51.452.024,51.4.086,51.4.19V17.761c0,2.694,1.406,4.385,3.856,4.385" transform="translate(-25.311 0)" fill="#2e2e2d"/>
    </g>
  </g>
</svg>
